<svg xmlns="http://www.w3.org/2000/svg" width="151.969" height="33.082" viewBox="0 0 151.969 33.082">
  <g id="Group_133" data-name="Group 133" transform="translate(-40 -13.959)">
    <g id="Warstwa_2" data-name="Warstwa 2" transform="translate(40 13.959)">
      <g id="Warstwa_1-2" data-name="Warstwa 1-2">
        <g id="Warstwa_1-2-2" data-name="Warstwa 1-2-2">
          <path id="Path_8" data-name="Path 8" d="M74.862,6.919c.394-2.225.819-4.423,1.233-6.656l-6.3,1.512c.13-.618.248-1.181.37-1.776a1.083,1.083,0,0,0-.256.039L60.456,2.032a.268.268,0,0,0-.252.256Q59.625,5.045,59.022,7.8c-.091.433-.185.866-.28,1.3a12.642,12.642,0,0,0-10,.181A12.985,12.985,0,0,0,41.8,16.5c-.039-.126-.059-.2-.079-.276a10.769,10.769,0,0,0-3.69-5.758A11.131,11.131,0,0,0,28.8,8.361a12.647,12.647,0,0,0-7.211,4.111c-.063.067-.13.134-.236.252.209-1.008.394-1.942.591-2.879a.291.291,0,0,0-.043-.221,5.673,5.673,0,0,0-2.131-1.28A7.785,7.785,0,0,0,15.95,8.2a11.381,11.381,0,0,1-2.583.232H5.49c-.252,0-.354.063-.394.319-.2,1.036-.433,2.072-.654,3.1l-2.2,10.314L.3,31.321c-.1.477-.193.973-.3,1.461H74.038a7.538,7.538,0,0,0,5.4-2.457c.224-.252.441-.508.65-.788l.154-.2a19.482,19.482,0,0,0,1.426-2.1c.445-.756.874-1.524,1.3-2.292s.87-1.6,1.311-2.4q4.261-7.727,8.507-15.454c.032-.055.051-.114.091-.2Zm-58.1,8.1a6.232,6.232,0,0,0-5.577,2.158.652.652,0,0,0-.138.3L8.455,29.714c-.051.252-.106.5-.161.788H2.17Q4.332,20.294,6.5,10.1h6.1c-.126.6-.248,1.181-.394,1.8.3-.244.563-.484.851-.7a7.14,7.14,0,0,1,6.167-1.26,3.565,3.565,0,0,1,.788.339.247.247,0,0,1,.095.221c-.351,1.737-.713,3.47-1.075,5.222A5.944,5.944,0,0,0,16.757,15.016Zm23.677,6.356c-.043.331-.079.662-.118,1.008H25.992a4.553,4.553,0,0,0,1.713,2.45,5.512,5.512,0,0,0,3.907.937,5.81,5.81,0,0,0,3.363-1.386L38.4,28.257l-.394.3a12.6,12.6,0,0,1-8.55,2.331,10.632,10.632,0,0,1-6-2.253A9.032,9.032,0,0,1,20,22.4a11.421,11.421,0,0,1,8.467-12.3,9.924,9.924,0,0,1,6.695.5,8.962,8.962,0,0,1,5.076,6.376A11.877,11.877,0,0,1,40.434,21.373Zm29.233-17.6a.362.362,0,0,1,.323-.351c1.331-.307,2.654-.638,4.025-.969-1.351,7.282-2.7,14.528-4.045,21.794h-4.1c.083-.461.161-.91.244-1.355l1.43-7.656q.642-3.438,1.284-6.872Q69.25,6.069,69.667,3.769ZM62.058,30.285c-.028.13-.051.217-.217.217H56.068a.331.331,0,0,1-.091-.024c.055-.26.11-.52.169-.819l-.327.15a8.944,8.944,0,0,1-7.258.394,8.835,8.835,0,0,1-5.8-7.089,10.741,10.741,0,0,1,3.151-9.889A10.958,10.958,0,0,1,56.99,10.239a8.035,8.035,0,0,1,2.737,1.311l.177.118,1.689-7.995a.291.291,0,0,1,.26-.26q2.985-.618,5.962-1.252h.217c-.1.461-.189.894-.28,1.327q-.992,4.667-1.969,9.334L63.027,25.6Q62.547,27.961,62.058,30.285ZM89.905,8.924q-4.19,7.616-8.384,15.221c-.646,1.181-1.319,2.32-2.04,3.442a6.9,6.9,0,0,1-2.048,2.06,6.428,6.428,0,0,1-4.47.878c-.394-.051-.807-.15-1.237-.232.256-1.367.5-2.7.752-4.037.264.039.512.083.756.114a3.261,3.261,0,0,0,3.43-1.756,1.016,1.016,0,0,0,.158-.673c-.165-1.654-.315-3.308-.465-4.966-.161-1.772-.319-3.544-.484-5.324-.126-1.4-.264-2.8-.394-4.194-.028-.28-.047-.563-.075-.89H78.67c.217,0,.3.039.327.287.185,1.709.394,3.418.6,5.12.181,1.575.354,3.151.536,4.7a.905.905,0,0,0,.047.15c.071-.122.122-.2.165-.291q2.587-4.868,5.163-9.739a.394.394,0,0,1,.394-.232h4.186c-.067.15-.122.26-.181.366Z"/>
          <path id="Path_9" data-name="Path 9" d="M128.864,38.368a9.253,9.253,0,0,0-.989.11,5.6,5.6,0,0,0-4.513,5.068,4.628,4.628,0,0,0,3.04,4.891,5.719,5.719,0,0,0,5.462-.925.546.546,0,0,0,.161-.3c.473-2.2.929-4.407,1.418-6.608a.689.689,0,0,0-.28-.788A6.717,6.717,0,0,0,128.864,38.368Z" transform="translate(-74.761 -23.257)"/>
          <path id="Path_10" data-name="Path 10" d="M128.888,38.366A6.7,6.7,0,0,1,133.22,39.8a.689.689,0,0,1,.28.788c-.488,2.2-.945,4.407-1.418,6.608a.546.546,0,0,1-.161.3,5.706,5.706,0,0,1-5.478.925,4.628,4.628,0,0,1-3.04-4.891,5.6,5.6,0,0,1,4.513-5.068A8.953,8.953,0,0,1,128.888,38.366Z" transform="translate(-74.785 -23.255)"/>
          <path id="Path_11" data-name="Path 11" d="M66.93,40.978a5.119,5.119,0,0,1,.815-1.386,4.512,4.512,0,0,1,4.194-1.76,4.041,4.041,0,0,1,3.418,3.151Z" transform="translate(-40.572 -22.91)"/>
        </g>
      </g>
    </g>
    <g id="Group_81" data-name="Group 81" transform="translate(129.986 33.435)" style="isolation: isolate">
      <path id="Path_12" data-name="Path 12" d="M68.82-54.3a5.173,5.173,0,0,1,1.824-1.618,4.9,4.9,0,0,1,2.32-.57,3.535,3.535,0,0,1,2.113.594,2.7,2.7,0,0,1,1.073,1.52l.347-1.982h1.156l-1.585,9.015H74.912l.347-2a4.378,4.378,0,0,1-1.61,1.527,4.6,4.6,0,0,1-2.336.6,3.836,3.836,0,0,1-1.882-.446,3.125,3.125,0,0,1-1.255-1.264,3.956,3.956,0,0,1-.446-1.924,5.735,5.735,0,0,1,.1-1.024A5.962,5.962,0,0,1,68.82-54.3Zm6.968,1.626a2.734,2.734,0,0,0-.776-2.047A2.763,2.763,0,0,0,73-55.479a3.855,3.855,0,0,0-1.791.43A3.907,3.907,0,0,0,69.794-53.8a4.736,4.736,0,0,0-.776,1.94,5.222,5.222,0,0,0-.083.842,2.745,2.745,0,0,0,.768,2.056,2.748,2.748,0,0,0,2.006.751,3.783,3.783,0,0,0,1.775-.446,4.062,4.062,0,0,0,1.436-1.271,4.728,4.728,0,0,0,.784-1.916A4.724,4.724,0,0,0,75.787-52.672Z" transform="translate(-67.73 56.519)"/>
      <path id="Path_13" data-name="Path 13" d="M88.482-55.892a2.686,2.686,0,0,1,1.081,1.5l.347-1.965h1.156l-1.618,9.247a5.142,5.142,0,0,1-.916,2.2,4.776,4.776,0,0,1-1.758,1.478,5.088,5.088,0,0,1-2.279.52,4.167,4.167,0,0,1-2.733-.826,2.853,2.853,0,0,1-1.032-2.246h1.139a2.211,2.211,0,0,0,.859,1.5,3.1,3.1,0,0,0,1.948.561,3.526,3.526,0,0,0,2.345-.849,3.816,3.816,0,0,0,1.271-2.336l.38-2.23a4.378,4.378,0,0,1-1.61,1.527,4.57,4.57,0,0,1-2.32.6,3.535,3.535,0,0,1-2.617-.983,3.581,3.581,0,0,1-.982-2.65,5.735,5.735,0,0,1,.1-1.024,5.962,5.962,0,0,1,.991-2.435,5.174,5.174,0,0,1,1.824-1.618,4.9,4.9,0,0,1,2.32-.57A3.542,3.542,0,0,1,88.482-55.892Zm.718,3.22a2.734,2.734,0,0,0-.776-2.047,2.763,2.763,0,0,0-2.014-.76,3.855,3.855,0,0,0-1.791.43A3.907,3.907,0,0,0,83.207-53.8a4.736,4.736,0,0,0-.776,1.94,5.222,5.222,0,0,0-.083.842,2.745,2.745,0,0,0,.768,2.056,2.748,2.748,0,0,0,2.006.751,3.783,3.783,0,0,0,1.775-.446,4.062,4.062,0,0,0,1.436-1.271,4.728,4.728,0,0,0,.784-1.916A4.724,4.724,0,0,0,89.2-52.672Z" transform="translate(-69.998 56.519)"/>
      <path id="Path_14" data-name="Path 14" d="M102.028-56.048a3,3,0,0,1,1.23,1.2,3.513,3.513,0,0,1,.421,1.733,4.282,4.282,0,0,1-.066.793c-.066.331-.132.627-.2.892h-7.48a3.919,3.919,0,0,0-.049.594,2.507,2.507,0,0,0,.768,1.965,2.8,2.8,0,0,0,1.957.694,3.656,3.656,0,0,0,2-.545,3.2,3.2,0,0,0,1.255-1.47H103.1a4.867,4.867,0,0,1-1.791,2.156,4.987,4.987,0,0,1-2.866.834,3.761,3.761,0,0,1-2.7-.966,3.467,3.467,0,0,1-1.015-2.634,5.838,5.838,0,0,1,.1-1.04,5.981,5.981,0,0,1,1-2.46,5.075,5.075,0,0,1,1.857-1.618,5.217,5.217,0,0,1,2.393-.561A4.04,4.04,0,0,1,102.028-56.048Zm.479,2.979a2.225,2.225,0,0,0-.743-1.8,2.84,2.84,0,0,0-1.9-.627,3.775,3.775,0,0,0-1.618.362,3.754,3.754,0,0,0-1.354,1.09,4.12,4.12,0,0,0-.793,1.75h6.324A4.6,4.6,0,0,0,102.507-53.068Z" transform="translate(-72.44 56.519)"/>
      <path id="Path_15" data-name="Path 15" d="M115.052-55.775a2.8,2.8,0,0,1,.834,2.189,5.048,5.048,0,0,1-.083.957l-.94,5.284h-1.14l.909-5.151a4.74,4.74,0,0,0,.066-.808,2.164,2.164,0,0,0-.594-1.651,2.337,2.337,0,0,0-1.668-.562,3.231,3.231,0,0,0-2.229.826A4.074,4.074,0,0,0,109-52.266v-.049l-.875,4.969H106.97l1.585-9.015h1.156l-.281,1.552A3.9,3.9,0,0,1,110.9-56.08a4.263,4.263,0,0,1,1.933-.446A3.2,3.2,0,0,1,115.052-55.775Z" transform="translate(-74.575 56.526)"/>
      <path id="Path_16" data-name="Path 16" d="M120.927-54.3a5.223,5.223,0,0,1,1.841-1.618,5.025,5.025,0,0,1,2.361-.57,3.793,3.793,0,0,1,2.6.826,3.049,3.049,0,0,1,1,2.246H127.49a2.019,2.019,0,0,0-.718-1.527,2.753,2.753,0,0,0-1.808-.552,3.6,3.6,0,0,0-2.468.949,4.567,4.567,0,0,0-1.379,2.7,4.809,4.809,0,0,0-.083.941,2.7,2.7,0,0,0,.718,2.023,2.608,2.608,0,0,0,1.907.7,3.635,3.635,0,0,0,2.014-.554,3.286,3.286,0,0,0,1.271-1.543h1.238a4.83,4.83,0,0,1-1.8,2.228,5.009,5.009,0,0,1-2.889.843,3.691,3.691,0,0,1-2.667-.958,3.463,3.463,0,0,1-1-2.624,5.923,5.923,0,0,1,.1-1.058A5.905,5.905,0,0,1,120.927-54.3Z" transform="translate(-76.818 56.519)"/>
      <path id="Path_17" data-name="Path 17" d="M133.713-56.326l1.7,7.645,4.31-7.645h1.205l-7.678,13.258h-1.223l2.51-4.309-2.113-8.949Z" transform="translate(-78.946 56.491)"/>
    </g>
  </g>
</svg>
