<svg xmlns="http://www.w3.org/2000/svg" width="184.08" height="40.072" viewBox="0 0 184.08 40.072">
  <g id="Group_137" data-name="Group 137" transform="translate(-60 -20.84)">
    <g id="Warstwa_2" data-name="Warstwa 2" transform="translate(60 20.84)">
      <g id="Warstwa_1-2" data-name="Warstwa 1-2">
        <g id="Warstwa_1-2-2" data-name="Warstwa 1-2-2">
          <path id="Path_8" data-name="Path 8" d="M90.68,8.382c.477-2.7.992-5.357,1.493-8.062L84.54,2.151C84.7,1.4,84.841.72,84.989,0a1.312,1.312,0,0,0-.31.048L73.23,2.462a.324.324,0,0,0-.305.31q-.7,3.339-1.431,6.679c-.11.525-.224,1.049-.339,1.579a15.313,15.313,0,0,0-12.112.219,15.729,15.729,0,0,0-8.405,8.739c-.048-.153-.072-.243-.1-.334a13.044,13.044,0,0,0-4.47-6.974,13.483,13.483,0,0,0-11.191-2.552,15.319,15.319,0,0,0-8.735,4.98c-.076.081-.157.162-.286.305.253-1.221.477-2.352.716-3.487a.352.352,0,0,0-.052-.267,6.872,6.872,0,0,0-2.581-1.55,9.43,9.43,0,0,0-4.622-.177,13.786,13.786,0,0,1-3.129.281H6.65c-.305,0-.429.076-.477.386-.248,1.255-.525,2.509-.792,3.759L2.719,26.852.358,37.939c-.124.577-.234,1.178-.358,1.77H89.683a9.13,9.13,0,0,0,6.535-2.977c.272-.305.534-.615.787-.954l.186-.248a23.6,23.6,0,0,0,1.727-2.538c.539-.916,1.059-1.846,1.569-2.776s1.054-1.942,1.589-2.91q5.161-9.359,10.3-18.719c.038-.067.062-.138.11-.243ZM20.3,18.189A7.548,7.548,0,0,0,13.543,20.8a.79.79,0,0,0-.167.363L10.242,35.992c-.062.305-.129.611-.2.954H2.628Q5.247,24.582,7.876,12.231h7.389c-.153.73-.3,1.431-.477,2.175.358-.3.682-.587,1.03-.844a8.649,8.649,0,0,1,7.47-1.527,4.318,4.318,0,0,1,.954.41.3.3,0,0,1,.114.267c-.425,2.1-.863,4.2-1.3,6.326A7.2,7.2,0,0,0,20.3,18.189Zm28.679,7.7c-.052.4-.1.8-.143,1.221H31.484a5.515,5.515,0,0,0,2.075,2.967,6.677,6.677,0,0,0,4.732,1.135,7.038,7.038,0,0,0,4.074-1.679l4.145,4.694-.477.358a15.264,15.264,0,0,1-10.356,2.824,12.879,12.879,0,0,1-7.265-2.729,10.94,10.94,0,0,1-4.188-7.547,13.834,13.834,0,0,1,10.256-14.9,12.021,12.021,0,0,1,8.11.611,10.856,10.856,0,0,1,6.149,7.723A14.386,14.386,0,0,1,48.977,25.889ZM84.388,4.565a.439.439,0,0,1,.391-.425c1.612-.372,3.215-.773,4.875-1.174-1.636,8.82-3.268,17.6-4.9,26.4H79.784c.1-.558.2-1.1.3-1.641l1.732-9.274q.778-4.165,1.555-8.324Q83.882,7.351,84.388,4.565ZM75.171,36.684c-.033.157-.062.262-.262.262H67.916a.4.4,0,0,1-.11-.029c.067-.315.134-.63.205-.992l-.4.181a10.834,10.834,0,0,1-8.792.477A10.7,10.7,0,0,1,51.8,28a13.011,13.011,0,0,1,3.816-11.978A13.273,13.273,0,0,1,69.032,12.4a9.733,9.733,0,0,1,3.315,1.589l.215.143,2.046-9.684a.353.353,0,0,1,.315-.315q3.616-.749,7.222-1.517h.262c-.119.558-.229,1.083-.339,1.608q-1.2,5.653-2.385,11.306L76.345,31.007Q75.763,33.87,75.171,36.684ZM108.9,10.81q-5.075,9.226-10.156,18.437c-.782,1.431-1.6,2.81-2.471,4.169a8.358,8.358,0,0,1-2.481,2.495,7.786,7.786,0,0,1-5.414,1.064c-.477-.062-.978-.181-1.5-.281.31-1.655.611-3.272.911-4.89.32.048.62.1.916.138a3.95,3.95,0,0,0,4.155-2.128A1.231,1.231,0,0,0,93.056,29c-.2-2-.382-4.007-.563-6.015-.2-2.147-.386-4.293-.587-6.45-.153-1.693-.32-3.387-.477-5.08-.033-.339-.057-.682-.091-1.078h3.955c.262,0,.363.048.4.348.224,2.07.477,4.141.725,6.2.219,1.908.429,3.816.649,5.691a1.1,1.1,0,0,0,.057.181c.086-.148.148-.248.2-.353q3.134-5.9,6.254-11.8a.477.477,0,0,1,.477-.281h5.071c-.081.181-.148.315-.219.444Z"/>
          <path id="Path_9" data-name="Path 9" d="M130.033,38.368a11.208,11.208,0,0,0-1.2.134,6.779,6.779,0,0,0-5.467,6.139,5.605,5.605,0,0,0,3.683,5.925,6.927,6.927,0,0,0,6.616-1.121.661.661,0,0,0,.2-.367c.572-2.667,1.126-5.338,1.717-8a.835.835,0,0,0-.339-.954A8.136,8.136,0,0,0,130.033,38.368Z" transform="translate(-64.498 -20.064)"/>
          <path id="Path_10" data-name="Path 10" d="M130.054,38.366A8.11,8.11,0,0,1,135.3,40.1a.835.835,0,0,1,.339.954c-.592,2.667-1.145,5.338-1.717,8a.661.661,0,0,1-.2.367,6.912,6.912,0,0,1-6.636,1.121,5.605,5.605,0,0,1-3.683-5.925,6.779,6.779,0,0,1,5.467-6.139A10.844,10.844,0,0,1,130.054,38.366Z" transform="translate(-64.519 -20.063)"/>
          <path id="Path_11" data-name="Path 11" d="M66.93,41.651a6.2,6.2,0,0,1,.987-1.679A5.465,5.465,0,0,1,73,37.84a4.895,4.895,0,0,1,4.141,3.816Z" transform="translate(-35.002 -19.765)"/>
        </g>
      </g>
    </g>
    <g id="Group_81" data-name="Group 81" transform="translate(169 44.431)" style="isolation: isolate">
      <path id="Path_12" data-name="Path 12" d="M69.05-53.835a6.267,6.267,0,0,1,2.21-1.96,5.941,5.941,0,0,1,2.81-.691,4.283,4.283,0,0,1,2.56.72,3.265,3.265,0,0,1,1.3,1.841l.42-2.4h1.4l-1.92,10.92h-1.4l.42-2.42a5.3,5.3,0,0,1-1.95,1.85,5.575,5.575,0,0,1-2.83.731,4.647,4.647,0,0,1-2.28-.54,3.785,3.785,0,0,1-1.52-1.531,4.791,4.791,0,0,1-.54-2.33,6.947,6.947,0,0,1,.12-1.24A7.222,7.222,0,0,1,69.05-53.835Zm8.44,1.969a3.311,3.311,0,0,0-.94-2.48,3.346,3.346,0,0,0-2.44-.92,4.669,4.669,0,0,0-2.17.521,4.732,4.732,0,0,0-1.71,1.509,5.737,5.737,0,0,0-.94,2.35,6.326,6.326,0,0,0-.1,1.02,3.326,3.326,0,0,0,.93,2.491,3.329,3.329,0,0,0,2.43.91,4.583,4.583,0,0,0,2.15-.54,4.92,4.92,0,0,0,1.74-1.54,5.727,5.727,0,0,0,.95-2.321A5.722,5.722,0,0,0,77.49-51.866Z" transform="translate(-67.73 56.526)"/>
      <path id="Path_13" data-name="Path 13" d="M90.12-55.766a3.254,3.254,0,0,1,1.31,1.82l.42-2.38h1.4l-1.96,11.2a6.228,6.228,0,0,1-1.11,2.66,5.785,5.785,0,0,1-2.13,1.79,6.163,6.163,0,0,1-2.76.63,5.047,5.047,0,0,1-3.31-1,3.456,3.456,0,0,1-1.25-2.721h1.38a2.678,2.678,0,0,0,1.04,1.82,3.757,3.757,0,0,0,2.36.68,4.271,4.271,0,0,0,2.84-1.029,4.622,4.622,0,0,0,1.54-2.83l.46-2.7a5.3,5.3,0,0,1-1.95,1.85,5.535,5.535,0,0,1-2.81.731,4.282,4.282,0,0,1-3.17-1.191,4.338,4.338,0,0,1-1.19-3.21,6.947,6.947,0,0,1,.12-1.24,7.222,7.222,0,0,1,1.2-2.949,6.267,6.267,0,0,1,2.21-1.96,5.941,5.941,0,0,1,2.81-.691A4.291,4.291,0,0,1,90.12-55.766Zm.87,3.9a3.311,3.311,0,0,0-.94-2.48,3.346,3.346,0,0,0-2.44-.92,4.669,4.669,0,0,0-2.17.521,4.732,4.732,0,0,0-1.71,1.509,5.737,5.737,0,0,0-.94,2.35,6.326,6.326,0,0,0-.1,1.02,3.326,3.326,0,0,0,.93,2.491,3.329,3.329,0,0,0,2.43.91,4.583,4.583,0,0,0,2.15-.54,4.92,4.92,0,0,0,1.74-1.54,5.727,5.727,0,0,0,.95-2.321A5.722,5.722,0,0,0,90.99-51.866Z" transform="translate(-67.73 56.526)"/>
      <path id="Path_14" data-name="Path 14" d="M103.57-55.955a3.636,3.636,0,0,1,1.49,1.45,4.255,4.255,0,0,1,.51,2.1,5.188,5.188,0,0,1-.08.96c-.08.4-.16.76-.24,1.08H96.189a4.747,4.747,0,0,0-.059.72,3.037,3.037,0,0,0,.93,2.38,3.4,3.4,0,0,0,2.37.841,4.429,4.429,0,0,0,2.42-.66,3.874,3.874,0,0,0,1.52-1.781h1.5a5.9,5.9,0,0,1-2.17,2.611,6.04,6.04,0,0,1-3.471,1.01,4.556,4.556,0,0,1-3.27-1.17,4.2,4.2,0,0,1-1.23-3.191,7.071,7.071,0,0,1,.121-1.26,7.245,7.245,0,0,1,1.21-2.98,6.148,6.148,0,0,1,2.25-1.96,6.319,6.319,0,0,1,2.9-.68A4.893,4.893,0,0,1,103.57-55.955Zm.58,3.609a2.7,2.7,0,0,0-.9-2.18,3.44,3.44,0,0,0-2.3-.759,4.573,4.573,0,0,0-1.96.439,4.548,4.548,0,0,0-1.64,1.32,4.991,4.991,0,0,0-.96,2.12h7.66A5.571,5.571,0,0,0,104.15-52.346Z" transform="translate(-67.73 56.526)"/>
      <path id="Path_15" data-name="Path 15" d="M116.76-55.616a3.388,3.388,0,0,1,1.01,2.651,6.115,6.115,0,0,1-.1,1.159l-1.139,6.4h-1.381l1.1-6.24a5.741,5.741,0,0,0,.08-.979,2.621,2.621,0,0,0-.72-2,2.831,2.831,0,0,0-2.02-.681,3.914,3.914,0,0,0-2.7,1,4.935,4.935,0,0,0-1.46,2.94v-.059l-1.06,6.019h-1.4l1.92-10.92h1.4l-.34,1.88a4.724,4.724,0,0,1,1.779-1.54,5.163,5.163,0,0,1,2.341-.54A3.873,3.873,0,0,1,116.76-55.616Z" transform="translate(-67.73 56.526)"/>
      <path id="Path_16" data-name="Path 16" d="M121.159-53.835a6.327,6.327,0,0,1,2.23-1.96,6.087,6.087,0,0,1,2.86-.691,4.594,4.594,0,0,1,3.15,1,3.693,3.693,0,0,1,1.21,2.72h-1.5a2.446,2.446,0,0,0-.87-1.85,3.334,3.334,0,0,0-2.19-.669,4.359,4.359,0,0,0-2.99,1.149,5.532,5.532,0,0,0-1.67,3.27,5.826,5.826,0,0,0-.1,1.14,3.27,3.27,0,0,0,.87,2.45,3.159,3.159,0,0,0,2.31.851,4.4,4.4,0,0,0,2.44-.671,3.981,3.981,0,0,0,1.54-1.869h1.5a5.85,5.85,0,0,1-2.179,2.7,6.068,6.068,0,0,1-3.5,1.021,4.471,4.471,0,0,1-3.231-1.161,4.194,4.194,0,0,1-1.21-3.179,7.174,7.174,0,0,1,.12-1.281A7.153,7.153,0,0,1,121.159-53.835Z" transform="translate(-67.73 56.526)"/>
      <path id="Path_17" data-name="Path 17" d="M134.069-56.326l2.06,9.26,5.221-9.26h1.46l-9.3,16.06h-1.481l3.04-5.22-2.559-10.84Z" transform="translate(-67.73 56.526)"/>
    </g>
  </g>
</svg>
